<svg width="200" height="60" viewBox="0 0 200 60" fill="none" xmlns="http://www.w3.org/2000/svg">
<rect width="200" height="60" fill="#05445E"/>
<path d="M64.4286 30.8436C64.4286 35.5338 63.0378 40.1187 60.432 44.0185C57.8262 47.9183 54.1226 50.9578 49.7893 52.7527C45.4561 54.5476 40.688 55.0172 36.0879 54.1022C31.4877 53.1872 27.2623 50.9286 23.9458 47.6121C20.6293 44.2956 18.3707 40.0701 17.4557 35.47C16.5406 30.8699 17.0103 26.1017 18.8051 21.7685C20.6 17.4353 23.6395 13.7316 27.5393 11.1258C31.4391 8.52009 36.024 7.12927 40.7143 7.12927L40.7143 30.8436H64.4286Z" fill="#75E6DA"/>
<path d="M65.5578 29.7143C65.5578 26.6001 64.9445 23.5164 63.7527 20.6392C62.5609 17.7621 60.8142 15.1478 58.6121 12.9458C56.41 10.7437 53.7958 8.9969 50.9186 7.80514C48.0415 6.61339 44.9578 6 41.8436 6L41.8436 29.7143H65.5578Z" fill="#D4F1F4"/>
<path d="M73.8304 38.8096V26.4459H75.3276V37.4814H81.0747V38.8096H73.8304ZM93.3433 32.6278C93.3433 33.9317 93.1078 35.0586 92.637 36.0084C92.1661 36.9582 91.5201 37.6907 90.6991 38.2059C89.8781 38.721 88.9403 38.9786 87.8859 38.9786C86.8314 38.9786 85.8937 38.721 85.0727 38.2059C84.2517 37.6907 83.6057 36.9582 83.1348 36.0084C82.664 35.0586 82.4285 33.9317 82.4285 32.6278C82.4285 31.3238 82.664 30.1969 83.1348 29.2471C83.6057 28.2973 84.2517 27.5648 85.0727 27.0496C85.8937 26.5345 86.8314 26.2769 87.8859 26.2769C88.9403 26.2769 89.8781 26.5345 90.6991 27.0496C91.5201 27.5648 92.1661 28.2973 92.637 29.2471C93.1078 30.1969 93.3433 31.3238 93.3433 32.6278ZM91.8944 32.6278C91.8944 31.5572 91.7153 30.6537 91.3571 29.9172C91.003 29.1807 90.522 28.6233 89.9143 28.2449C89.3106 27.8666 88.6345 27.6775 87.8859 27.6775C87.1373 27.6775 86.4592 27.8666 85.8515 28.2449C85.2478 28.6233 84.7668 29.1807 84.4086 29.9172C84.0545 30.6537 83.8774 31.5572 83.8774 32.6278C83.8774 33.6983 84.0545 34.6018 84.4086 35.3383C84.7668 36.0748 85.2478 36.6323 85.8515 37.0106C86.4592 37.3889 87.1373 37.578 87.8859 37.578C88.6345 37.578 89.3106 37.3889 89.9143 37.0106C90.522 36.6323 91.003 36.0748 91.3571 35.3383C91.7153 34.6018 91.8944 33.6983 91.8944 32.6278ZM104.312 30.3096C104.18 29.9031 104.005 29.5389 103.787 29.2169C103.574 28.8909 103.318 28.6132 103.02 28.3838C102.727 28.1544 102.393 27.9793 102.018 27.8586C101.644 27.7378 101.234 27.6775 100.787 27.6775C100.054 27.6775 99.3883 27.8666 98.7886 28.2449C98.1889 28.6233 97.712 29.1807 97.3578 29.9172C97.0037 30.6537 96.8266 31.5572 96.8266 32.6278C96.8266 33.6983 97.0057 34.6018 97.3639 35.3383C97.7221 36.0748 98.207 36.6323 98.8188 37.0106C99.4305 37.3889 100.119 37.578 100.883 37.578C101.592 37.578 102.216 37.4271 102.755 37.1253C103.298 36.8194 103.721 36.3888 104.023 35.8334C104.328 35.2739 104.481 34.6159 104.481 33.8593L104.94 33.9559H101.221V32.6278H105.93V33.9559C105.93 34.9741 105.713 35.8595 105.278 36.6121C104.848 37.3647 104.252 37.9483 103.491 38.3628C102.735 38.7733 101.865 38.9786 100.883 38.9786C99.7887 38.9786 98.8268 38.721 97.9978 38.2059C97.1727 37.6907 96.5288 36.9582 96.0659 36.0084C95.6071 35.0586 95.3777 33.9317 95.3777 32.6278C95.3777 31.6498 95.5085 30.7704 95.7701 29.9896C96.0358 29.2048 96.41 28.5367 96.893 27.9854C97.376 27.434 97.9475 27.0114 98.6075 26.7176C99.2675 26.4238 99.994 26.2769 100.787 26.2769C101.439 26.2769 102.047 26.3755 102.61 26.5727C103.177 26.7659 103.683 27.0416 104.125 27.3998C104.572 27.7539 104.944 28.1785 105.242 28.6736C105.54 29.1646 105.745 29.7099 105.858 30.3096H104.312ZM118.926 32.6278C118.926 33.9317 118.691 35.0586 118.22 36.0084C117.749 36.9582 117.103 37.6907 116.282 38.2059C115.461 38.721 114.523 38.9786 113.469 38.9786C112.414 38.9786 111.477 38.721 110.656 38.2059C109.835 37.6907 109.189 36.9582 108.718 36.0084C108.247 35.0586 108.012 33.9317 108.012 32.6278C108.012 31.3238 108.247 30.1969 108.718 29.2471C109.189 28.2973 109.835 27.5648 110.656 27.0496C111.477 26.5345 112.414 26.2769 113.469 26.2769C114.523 26.2769 115.461 26.5345 116.282 27.0496C117.103 27.5648 117.749 28.2973 118.22 29.2471C118.691 30.1969 118.926 31.3238 118.926 32.6278ZM117.477 32.6278C117.477 31.5572 117.298 30.6537 116.94 29.9172C116.586 29.1807 116.105 28.6233 115.497 28.2449C114.894 27.8666 114.217 27.6775 113.469 27.6775C112.72 27.6775 112.042 27.8666 111.434 28.2449C110.831 28.6233 110.35 29.1807 109.992 29.9172C109.637 30.6537 109.46 31.5572 109.46 32.6278C109.46 33.6983 109.637 34.6018 109.992 35.3383C110.35 36.0748 110.831 36.6323 111.434 37.0106C112.042 37.3889 112.72 37.578 113.469 37.578C114.217 37.578 114.894 37.3889 115.497 37.0106C116.105 36.6323 116.586 36.0748 116.94 35.3383C117.298 34.6018 117.477 33.6983 117.477 32.6278ZM126.225 38.8096V26.4459H127.722V31.9516H134.314V26.4459H135.812V38.8096H134.314V33.2797H127.722V38.8096H126.225ZM138.809 38.8096V26.4459H146.271V27.7741H140.306V31.9516H145.884V33.2797H140.306V37.4814H146.367V38.8096H138.809ZM148.969 38.8096V26.4459H153.147C154.113 26.4459 154.905 26.6109 155.525 26.941C156.145 27.267 156.604 27.7157 156.902 28.2872C157.199 28.8587 157.348 29.5087 157.348 30.2371C157.348 30.9656 157.199 31.6115 156.902 32.175C156.604 32.7384 156.147 33.1811 155.531 33.5031C154.915 33.8211 154.129 33.98 153.171 33.98H149.79V32.6278H153.122C153.783 32.6278 154.314 32.5312 154.716 32.338C155.123 32.1448 155.417 31.8711 155.598 31.517C155.783 31.1588 155.875 30.7322 155.875 30.2371C155.875 29.7421 155.783 29.3095 155.598 28.9392C155.413 28.5689 155.117 28.2832 154.71 28.0819C154.304 27.8767 153.766 27.7741 153.098 27.7741H150.466V38.8096H148.969ZM154.789 33.2556L157.831 38.8096H156.093L153.098 33.2556H154.789ZM159.843 38.8096V26.4459H167.305V27.7741H161.34V31.9516H166.918V33.2797H161.34V37.4814H167.401V38.8096H159.843Z" fill="#D4F1F4"/>
</svg>
