<svg width="200" height="60" viewBox="0 0 200 60" fill="none" xmlns="http://www.w3.org/2000/svg">
<rect width="200" height="60" fill="#05445E"/>
<path d="M47.7244 26.2456C47.7244 24.5061 47.3818 22.7837 46.7161 21.1767C46.0505 19.5697 45.0748 18.1095 43.8448 16.8795C42.6149 15.6496 41.1547 14.6739 39.5477 14.0083C37.9406 13.3426 36.2182 13 34.4788 13L34.4788 26.2456H47.7244Z" fill="#75E6DA"/>
<path d="M48.2438 29.6219C48.2438 32.9094 47.269 36.1231 45.4425 38.8565C43.6161 41.59 41.0201 43.7205 37.9828 44.9785C34.9456 46.2366 31.6035 46.5658 28.3791 45.9244C25.1548 45.2831 22.1931 43.7 19.8684 41.3754C17.5438 39.0507 15.9607 36.089 15.3194 32.8647C14.678 29.6403 15.0072 26.2982 16.2653 23.261C17.5233 20.2237 19.6538 17.6277 22.3873 15.8013C25.1207 13.9749 28.3344 13 31.6219 13L31.6219 29.6219H48.2438Z" fill="#189AB4"/>
<path d="M58.6785 39.1219V24.5764H61.3134V36.9131H67.7197V39.1219H58.6785ZM83.6373 31.8492C83.6373 33.4164 83.3438 34.7587 82.7567 35.8762C82.1743 36.9889 81.3788 37.8411 80.3703 38.433C79.3665 39.0248 78.2278 39.3208 76.9541 39.3208C75.6804 39.3208 74.5393 39.0248 73.5308 38.433C72.527 37.8364 71.7316 36.9818 71.1444 35.8691C70.5621 34.7516 70.2709 33.4117 70.2709 31.8492C70.2709 30.2819 70.5621 28.942 71.1444 27.8293C71.7316 26.7119 72.527 25.8572 73.5308 25.2654C74.5393 24.6735 75.6804 24.3776 76.9541 24.3776C78.2278 24.3776 79.3665 24.6735 80.3703 25.2654C81.3788 25.8572 82.1743 26.7119 82.7567 27.8293C83.3438 28.942 83.6373 30.2819 83.6373 31.8492ZM80.9882 31.8492C80.9882 30.746 80.8154 29.8156 80.4697 29.058C80.1288 28.2957 79.6553 27.7204 79.0493 27.3321C78.4432 26.9391 77.7448 26.7426 76.9541 26.7426C76.1634 26.7426 75.465 26.9391 74.8589 27.3321C74.2529 27.7204 73.777 28.2957 73.4314 29.058C73.0905 29.8156 72.92 30.746 72.92 31.8492C72.92 32.9524 73.0905 33.8852 73.4314 34.6475C73.777 35.405 74.2529 35.9803 74.8589 36.3733C75.465 36.7616 76.1634 36.9557 76.9541 36.9557C77.7448 36.9557 78.4432 36.7616 79.0493 36.3733C79.6553 35.9803 80.1288 35.405 80.4697 34.6475C80.8154 33.8852 80.9882 32.9524 80.9882 31.8492ZM97.0728 29.2213C96.9544 28.8378 96.7911 28.4945 96.5827 28.1915C96.3791 27.8837 96.1329 27.621 95.8441 27.4032C95.56 27.1853 95.2333 27.022 94.864 26.9131C94.4947 26.7995 94.0922 26.7426 93.6566 26.7426C92.8753 26.7426 92.1793 26.9391 91.5685 27.3321C90.9577 27.7251 90.4771 28.3028 90.1268 29.0651C89.7811 29.8227 89.6083 30.746 89.6083 31.835C89.6083 32.9335 89.7811 33.8639 90.1268 34.6262C90.4724 35.3885 90.953 35.9685 91.5685 36.3662C92.1841 36.7592 92.899 36.9557 93.7134 36.9557C94.452 36.9557 95.0912 36.8137 95.631 36.5296C96.1755 36.2455 96.5946 35.843 96.8881 35.3222C97.1817 34.7966 97.3285 34.1811 97.3285 33.4756L97.9251 33.5679H93.9762V31.5083H99.8782V33.2554C99.8782 34.5007 99.613 35.5779 99.0827 36.487C98.5524 37.3961 97.8233 38.0968 96.8952 38.5892C95.9672 39.0769 94.9019 39.3208 93.6992 39.3208C92.3592 39.3208 91.1826 39.0201 90.1694 38.4188C89.1609 37.8127 88.3725 36.9533 87.8043 35.8407C87.2409 34.7232 86.9591 33.3975 86.9591 31.8634C86.9591 30.6891 87.1249 29.6404 87.4563 28.7171C87.7925 27.7938 88.2612 27.0102 88.8626 26.3662C89.4639 25.7175 90.1694 25.2251 90.979 24.8889C91.7887 24.548 92.6694 24.3776 93.6211 24.3776C94.426 24.3776 95.1765 24.496 95.8725 24.7327C96.5685 24.9647 97.1864 25.2961 97.7262 25.727C98.2707 26.1579 98.7181 26.6693 99.0685 27.2611C99.4189 27.853 99.6485 28.5064 99.7574 29.2213H97.0728ZM116.623 31.8492C116.623 33.4164 116.33 34.7587 115.743 35.8762C115.16 36.9889 114.365 37.8411 113.356 38.433C112.352 39.0248 111.214 39.3208 109.94 39.3208C108.666 39.3208 107.525 39.0248 106.517 38.433C105.513 37.8364 104.718 36.9818 104.13 35.8691C103.548 34.7516 103.257 33.4117 103.257 31.8492C103.257 30.2819 103.548 28.942 104.13 27.8293C104.718 26.7119 105.513 25.8572 106.517 25.2654C107.525 24.6735 108.666 24.3776 109.94 24.3776C111.214 24.3776 112.352 24.6735 113.356 25.2654C114.365 25.8572 115.16 26.7119 115.743 27.8293C116.33 28.942 116.623 30.2819 116.623 31.8492ZM113.974 31.8492C113.974 30.746 113.801 29.8156 113.456 29.058C113.115 28.2957 112.641 27.7204 112.035 27.3321C111.429 26.9391 110.731 26.7426 109.94 26.7426C109.149 26.7426 108.451 26.9391 107.845 27.3321C107.239 27.7204 106.763 28.2957 106.417 29.058C106.076 29.8156 105.906 30.746 105.906 31.8492C105.906 32.9524 106.076 33.8852 106.417 34.6475C106.763 35.405 107.239 35.9803 107.845 36.3733C108.451 36.7616 109.149 36.9557 109.94 36.9557C110.731 36.9557 111.429 36.7616 112.035 36.3733C112.641 35.9803 113.115 35.405 113.456 34.6475C113.801 33.8852 113.974 32.9524 113.974 31.8492Z" fill="#D4F1F4"/>
<path d="M128.678 39.1219V24.5764H131.313V30.7341H138.053V24.5764H140.696V39.1219H138.053V32.9429H131.313V39.1219H128.678ZM144.761 39.1219V24.5764H154.222V26.7853H147.396V30.7341H153.731V32.9429H147.396V36.9131H154.278V39.1219H144.761ZM158.11 39.1219V24.5764H163.564C164.682 24.5764 165.619 24.7706 166.377 25.1588C167.139 25.5471 167.714 26.0916 168.103 26.7924C168.496 27.4884 168.692 28.3004 168.692 29.2284C168.692 30.1612 168.493 30.9709 168.096 31.6574C167.703 32.3392 167.122 32.8672 166.355 33.2412C165.588 33.6105 164.646 33.7952 163.529 33.7952H159.644V31.6077H163.174C163.827 31.6077 164.362 31.5177 164.779 31.3378C165.195 31.1532 165.503 30.8856 165.702 30.5353C165.906 30.1801 166.007 29.7445 166.007 29.2284C166.007 28.7123 165.906 28.272 165.702 27.9074C165.498 27.5381 165.188 27.2587 164.772 27.0693C164.355 26.8752 163.818 26.7782 163.159 26.7782H160.745V39.1219H158.11ZM165.624 32.531L169.225 39.1219H166.284L162.747 32.531H165.624ZM172.318 39.1219V24.5764H181.778V26.7853H174.952V30.7341H181.288V32.9429H174.952V36.9131H181.835V39.1219H172.318Z" fill="#D4F1F4"/>
</svg>
